<svg width="46" height="40" viewBox="0 0 46 40" fill="none" xmlns="http://www.w3.org/2000/svg">
<path d="M45.9187 27.4136C45.9187 34.3333 40.3092 39.9429 33.3894 39.9429L14.5956 39.9429C12.6734 39.9429 11.1152 38.3847 11.1152 36.4625L11.1152 12.7962C11.1152 8.95187 14.2316 5.83547 18.0759 5.83547L42.4384 5.83547C44.3605 5.83547 45.9187 7.39367 45.9187 9.31581L45.9187 27.4136Z" fill="#E8F5E9"/>
<path d="M17.3729 7.92358C14.8871 7.92358 12.8634 9.96577 12.8634 12.4622C12.8634 14.0415 13.6743 15.4359 14.8989 16.2487C13.4199 16.7432 12.1401 17.6675 11.2014 18.8767C10.6824 18.4775 10.1025 18.1565 9.47742 17.9265C10.4254 17.2227 11.0448 16.0922 11.0448 14.8216C11.0448 12.7043 9.33245 10.9711 7.22801 10.9711C5.12358 10.9711 3.41119 12.7043 3.41119 14.8216C3.41119 16.0929 4.03118 17.2239 4.97993 17.9277C2.46811 18.8546 0.674194 21.2813 0.674194 24.1373V26.1435C0.674451 26.2964 0.735627 26.443 0.844097 26.5507C0.952566 26.6586 1.09934 26.7188 1.25228 26.7183H10.0541C10.0754 26.7206 10.0967 26.7218 10.1181 26.7216H24.6282C24.6495 26.7218 24.6711 26.7206 24.6922 26.7183H33.4947C33.8111 26.717 34.0673 26.4602 34.0681 26.1435V24.1373C34.0681 21.2813 32.2773 18.8546 29.7668 17.9274C30.7155 17.2239 31.3355 16.0927 31.3355 14.8214C31.3355 12.7041 29.6231 10.9708 27.5187 10.9708C25.4143 10.9708 23.7019 12.7041 23.7019 14.8214C23.7019 16.0919 24.3216 17.2226 25.2696 17.9262C24.6432 18.1568 24.063 18.4788 23.5433 18.879C22.6051 17.6691 21.3271 16.7435 19.8481 16.2487C21.0723 15.4359 21.8836 14.0415 21.8836 12.4622C21.8836 9.96577 19.8589 7.92358 17.373 7.92358H17.3729ZM17.3729 9.07513C19.2321 9.07513 20.7309 10.584 20.7309 12.4622C20.7309 14.3257 19.2554 15.8199 17.4168 15.8439C17.4022 15.8439 17.3878 15.8418 17.3729 15.8418C17.358 15.8418 17.3438 15.8439 17.3289 15.8439C15.4903 15.8202 14.0159 14.3258 14.0159 12.4622C14.0159 10.5837 15.5134 9.07513 17.3726 9.07513H17.3729ZM7.22808 12.1226C8.70325 12.1226 9.89335 13.3199 9.89335 14.8216C9.89335 16.3132 8.71864 17.5053 7.25736 17.5215C7.24759 17.5215 7.23808 17.5205 7.22806 17.5205C7.21829 17.5205 7.20878 17.5215 7.19876 17.5215C5.73748 17.5053 4.56277 16.3129 4.56277 14.8216C4.56277 13.3199 5.75287 12.1226 7.22804 12.1226H7.22808ZM27.5184 12.1226C28.9935 12.1226 30.1836 13.3199 30.1836 14.8216C30.1836 16.3132 29.0089 17.5053 27.5476 17.5215C27.5379 17.5215 27.5284 17.5205 27.5183 17.5205C27.5086 17.5205 27.4991 17.5215 27.489 17.5215C26.0277 17.5053 24.853 16.3129 24.853 14.8216C24.853 13.3199 26.0431 12.1226 27.5183 12.1226H27.5184ZM17.3288 16.9953C17.3435 16.9956 17.3578 16.9974 17.3728 16.9974C17.3874 16.9974 17.4018 16.9953 17.4167 16.9953C21.104 17.019 24.0549 19.9953 24.0549 23.721L24.0546 25.5697H10.6914V23.721C10.6914 19.995 13.6415 17.019 17.3283 16.9953H17.3288ZM7.18399 18.6744C7.19864 18.6746 7.21304 18.6764 7.22795 18.6764C7.24286 18.6764 7.25699 18.6744 7.2719 18.6744C8.51906 18.6844 9.65725 19.1144 10.5636 19.8339C9.91503 20.9813 9.53999 22.3058 9.53999 23.7214V25.5656H1.82528V24.1372C1.82528 21.1093 4.20602 18.698 7.18386 18.6741L7.18399 18.6744ZM27.4743 18.6744C27.4892 18.6746 27.5033 18.6764 27.5182 18.6764C27.5331 18.6764 27.5473 18.6744 27.5622 18.6744C30.54 18.698 32.9208 21.1096 32.9208 24.1375V25.5656H25.2021L25.2018 23.7214C25.2018 22.3066 24.8278 20.9831 24.1806 19.8359C25.0871 19.1154 26.2261 18.6844 27.4743 18.6744H27.4743Z" fill="#103E13"/>
</svg>
