<svg width="35" height="34" viewBox="0 0 35 34" fill="none" xmlns="http://www.w3.org/2000/svg">
<g clip-path="url(#clip0_211_2332)">
<path d="M33.1457 27.0625L33.1457 27.0626C33.277 26.9716 33.3888 26.8554 33.4748 26.7208L33.7681 26.9081L33.4748 26.7208C33.5607 26.5862 33.619 26.4358 33.6464 26.2784C33.6737 26.1211 33.6695 25.9599 33.6339 25.8042L33.9732 25.7267L33.6339 25.8042C33.5984 25.6485 33.5323 25.5014 33.4394 25.3714L33.4378 25.3693C32.1308 23.5113 30.3498 22.0374 28.2802 21.1009L27.7755 20.8725L28.2003 20.5169C29.4601 19.4624 30.3643 18.0453 30.7898 16.4585C31.2153 14.8717 31.1414 13.1923 30.5782 11.6489C30.015 10.1056 28.9899 8.77337 27.6424 7.83358C26.2948 6.89379 24.6904 6.39213 23.0475 6.3969L23.046 6.3969C22.3148 6.39568 21.5871 6.49664 20.884 6.69683L20.8777 6.69861L20.8777 6.69855C20.7215 6.73988 20.5751 6.81187 20.447 6.91033C20.3189 7.00878 20.2117 7.13174 20.1315 7.27204C20.0514 7.41233 20 7.56717 19.9803 7.72752C19.9606 7.88788 19.973 8.05056 20.0167 8.20608C20.0605 8.36161 20.1348 8.50687 20.2352 8.63342L19.9626 8.84979L20.2352 8.63342C20.3356 8.75997 20.4603 8.86527 20.6018 8.9432L20.4339 9.24807L20.6018 8.9432C20.7433 9.02112 20.8989 9.07012 21.0596 9.08733C21.2202 9.10453 21.3827 9.08961 21.5375 9.04343L21.5415 9.04224L21.5415 9.04226C22.0312 8.90257 22.538 8.83218 23.0472 8.83314M33.1457 27.0625L23.0465 9.18118M33.1457 27.0625L33.1416 27.0654C32.9385 27.2107 32.6948 27.2884 32.4451 27.2877C32.2498 27.2865 32.0575 27.2388 31.8842 27.1487C31.711 27.0585 31.5618 26.9285 31.4487 26.7693M33.1457 27.0625L31.1644 26.9701M23.0472 8.83314L23.0465 9.18118M23.0472 8.83314C23.047 8.83314 23.0468 8.83314 23.0465 8.83314V9.18118M23.0472 8.83314C24.5238 8.83332 25.9399 9.41998 26.9841 10.4641C28.0284 11.5084 28.6151 12.9248 28.6151 14.4017C28.6151 15.8786 28.0284 17.295 26.9841 18.3393C25.9398 19.3836 24.5234 19.9703 23.0465 19.9703C22.7235 19.9703 22.4136 20.0986 22.1852 20.327C21.9568 20.5555 21.8284 20.8653 21.8284 21.1884C21.8284 21.5114 21.9568 21.8213 22.1852 22.0497C22.4136 22.2782 22.7235 22.4065 23.0465 22.4065H23.0469C24.6943 22.4083 26.3173 22.8055 27.7793 23.5647C29.2413 24.3239 30.4996 25.4229 31.4487 26.7693M23.0465 9.18118C24.4311 9.18118 25.759 9.73119 26.738 10.7102C27.717 11.6893 28.2671 13.0171 28.2671 14.4017C28.2671 15.7863 27.717 17.1141 26.738 18.0932C25.759 19.0722 24.4311 19.6222 23.0465 19.6222C22.6312 19.6222 22.2328 19.7872 21.9391 20.0809C21.6454 20.3746 21.4804 20.773 21.4804 21.1884C21.4804 21.6037 21.6454 22.0021 21.9391 22.2958C22.2328 22.5895 22.6312 22.7545 23.0465 22.7545C24.6383 22.7563 26.2063 23.1401 27.6189 23.8736C29.0315 24.6072 30.2474 25.6691 31.1644 26.9701M31.4487 26.7693C31.4486 26.7691 31.4485 26.7689 31.4483 26.7688L31.1644 26.9701M31.4487 26.7693C31.4488 26.7694 31.4489 26.7695 31.4489 26.7696L31.1644 26.9701M17.5628 20.5175L17.1401 20.8731L17.6434 21.1009C19.713 22.0374 21.4939 23.5113 22.801 25.3693L22.806 25.3764L22.8113 25.3832C22.9129 25.5133 22.9869 25.6626 23.029 25.8222C23.0711 25.9818 23.0803 26.1482 23.056 26.3115C23.0318 26.4747 22.9747 26.6313 22.8881 26.7718C22.8015 26.9123 22.6873 27.0337 22.5524 27.1287C22.4175 27.2237 22.2646 27.2903 22.1032 27.3245C21.9417 27.3586 21.775 27.3596 21.6132 27.3274C21.4513 27.2951 21.2977 27.2303 21.1617 27.1369C21.0256 27.0435 20.91 26.9235 20.8217 26.784L20.8173 26.777L20.8125 26.7701C19.8653 25.4211 18.6073 24.3199 17.1447 23.5598C15.6821 22.7996 14.058 22.4027 12.4097 22.4027C10.7614 22.4027 9.1373 22.7996 7.67474 23.5598C6.21217 24.3199 4.95413 25.4211 4.00697 26.7701L4.00619 26.7712C3.89485 26.9311 3.7464 27.0616 3.57356 27.1516C3.40071 27.2415 3.20863 27.2882 3.01378 27.2877L3.01165 27.2877C2.76176 27.2885 2.51793 27.2108 2.31463 27.0654L2.31295 27.0643C2.04944 26.8782 1.87046 26.5953 1.81527 26.2775C1.7601 25.9598 1.83316 25.6332 2.01841 25.3693C3.32551 23.5113 5.10645 22.0374 7.17607 21.1009L7.67939 20.8731L7.25663 20.5175C6.0002 19.4605 5.09918 18.0427 4.67573 16.4564C4.25227 14.8701 4.32687 13.1919 4.88939 11.6494C5.45192 10.1069 6.47517 8.77463 7.82042 7.83331C9.16567 6.89198 10.7678 6.3871 12.4097 6.3871C14.0516 6.3871 15.6538 6.89198 16.999 7.83331C18.3443 8.77463 19.3675 10.1069 19.9301 11.6494C20.4926 13.1919 20.5672 14.8701 20.1437 16.4564C19.7203 18.0427 18.8192 19.4605 17.5628 20.5175ZM7.77964 11.308C7.16776 12.2237 6.84117 13.3003 6.84117 14.4017C6.84117 15.8786 7.42785 17.295 8.47216 18.3393C9.51647 19.3836 10.9328 19.9703 12.4097 19.9703C13.5111 19.9703 14.5877 19.6437 15.5034 19.0318C16.4192 18.4199 17.1329 17.5502 17.5544 16.5327C17.9759 15.5152 18.0861 14.3955 17.8713 13.3153C17.6564 12.2351 17.1261 11.2429 16.3473 10.4641C15.5685 9.68536 14.5763 9.155 13.4961 8.94014C12.4159 8.72528 11.2962 8.83555 10.2787 9.25702C9.26121 9.67849 8.39152 10.3922 7.77964 11.308Z" fill="#4CAF4F" stroke="#4CAF4F" stroke-width="0.696069"/>
</g>
<defs>
<clipPath id="clip0_211_2332">
<rect width="33.4113" height="33.4113" fill="white" transform="translate(0.924591 0.306274)"/>
</clipPath>
</defs>
</svg>
